<svg xmlns="http://www.w3.org/2000/svg" viewBox="0 0 64 64">
  <defs>
    <linearGradient id="bgGradient" x1="0%" y1="0%" x2="100%" y2="100%">
      <stop offset="0%" style="stop-color:#4F46E5"/>
      <stop offset="100%" style="stop-color:#7C3AED"/>
    </linearGradient>
  </defs>
  <!-- Background -->
  <rect x="0" y="0" width="64" height="64" rx="12" fill="url(#bgGradient)"/>
  <!-- Building icon -->
  <rect x="12" y="22" width="40" height="34" rx="3" fill="white" opacity="0.95"/>
  <!-- Windows row 1 -->
  <rect x="16" y="26" width="7" height="6" rx="1" fill="#4F46E5" opacity="0.8"/>
  <rect x="28" y="26" width="7" height="6" rx="1" fill="#4F46E5" opacity="0.8"/>
  <rect x="40" y="26" width="7" height="6" rx="1" fill="#4F46E5" opacity="0.8"/>
  <!-- Windows row 2 -->
  <rect x="16" y="36" width="7" height="6" rx="1" fill="#4F46E5" opacity="0.8"/>
  <rect x="28" y="36" width="7" height="6" rx="1" fill="#4F46E5" opacity="0.8"/>
  <rect x="40" y="36" width="7" height="6" rx="1" fill="#4F46E5" opacity="0.8"/>
  <!-- Door -->
  <rect x="26" y="48" width="12" height="8" rx="1" fill="#4F46E5" opacity="0.9"/>
  <!-- Roof -->
  <polygon points="32,8 12,22 52,22" fill="white" opacity="0.95"/>
  <!-- Antenna -->
  <circle cx="32" cy="10" r="3" fill="white"/>
  <line x1="32" y1="13" x2="32" y2="18" stroke="white" stroke-width="2"/>
</svg>
